<?xml version="1.0" encoding="UTF-8"?>
<svg xmlns="http://www.w3.org/2000/svg" xmlns:xlink="http://www.w3.org/1999/xlink" width="32px" height="32px" viewBox="0 0 32 32" version="1.1">
<g id="surface1">
<path style=" stroke:none;fill-rule:nonzero;fill:#6E07F3;fill-opacity:1;" d="M 22.25 4.851562 C 21.273438 4.851562 20.351562 5.324219 19.800781 6.125 L 18.949219 7.351562 L 13.074219 7.351562 L 12.226562 6.125 C 11.675781 5.324219 10.75 4.851562 9.773438 4.851562 C 8.800781 4.851562 7.875 5.324219 7.324219 6.125 L 0.5 15.851562 L 0.5 31.5 L 31.5 31.5 L 31.5 15.851562 L 24.699219 6.148438 C 24.148438 5.324219 23.226562 4.851562 22.25 4.851562 Z M 22.25 8.351562 C 22.675781 8.351562 23 8.675781 23 9.101562 C 23 9.523438 22.675781 9.851562 22.25 9.851562 L 14.800781 9.851562 L 13.75 8.351562 Z M 15.5 10.851562 L 16.5 10.851562 L 16 11.550781 Z M 18 30.5 L 1.5 30.5 L 1.5 16.148438 L 8.101562 6.699219 C 8.476562 6.148438 9.074219 5.851562 9.75 5.851562 C 10.398438 5.851562 11 6.148438 11.398438 6.699219 L 18 16.148438 Z M 16.601562 12.425781 L 17.699219 10.851562 L 22.25 10.851562 C 23.226562 10.851562 24 10.074219 24 9.101562 C 24 8.125 23.226562 7.351562 22.25 7.351562 L 20.148438 7.351562 L 20.601562 6.699219 C 20.976562 6.148438 21.574219 5.851562 22.25 5.851562 C 22.925781 5.851562 23.5 6.148438 23.898438 6.699219 L 30.050781 15.5 L 18.75 15.5 Z M 19 30.5 L 19 16.5 L 30.5 16.5 L 30.5 30.5 Z M 19 30.5 "/>
<path style=" stroke:none;fill-rule:nonzero;fill:#6E07F3;fill-opacity:1;" d="M 9.75 7.351562 C 8.773438 7.351562 8 8.125 8 9.101562 C 8 10.074219 8.773438 10.851562 9.75 10.851562 C 10.726562 10.851562 11.5 10.074219 11.5 9.101562 C 11.5 8.125 10.726562 7.351562 9.75 7.351562 Z M 9.75 9.851562 C 9.324219 9.851562 9 9.523438 9 9.101562 C 9 8.675781 9.324219 8.351562 9.75 8.351562 C 10.175781 8.351562 10.5 8.675781 10.5 9.101562 C 10.5 9.523438 10.175781 9.851562 9.75 9.851562 Z M 9.75 9.851562 "/>
</g>
</svg>
