<?xml version="1.0" ?><svg viewBox="0 0 64 64" xmlns="http://www.w3.org/2000/svg"><title/><g><path fill="#6E07F3" d="M16.69,48.14V33.2a1.74,1.74,0,0,1,1.74-1.74H45.57a1.74,1.74,0,0,1,1.74,1.74V48.14a1.74,1.74,0,0,1-1.74,1.74H18.43A1.74,1.74,0,0,1,16.69,48.14ZM38.06,9.61s0,.06,0,.09,0,0,0,.05v7.77a5,5,0,0,1-5,5H31a5,5,0,0,1-5-5V9.75a.58.58,0,0,1,0-.14A3.08,3.08,0,0,1,29,6.8h6.24A2.81,2.81,0,0,1,38.06,9.61Zm-2,4a4.88,4.88,0,0,1-3,1H27.94v3a3,3,0,0,0,3,3h2.1a3,3,0,0,0,3-3Zm-12.93,4a1,1,0,0,0,1-1v-4.5a1,1,0,0,0-1-1,3.25,3.25,0,0,0,0,6.5Zm16.75-5.5v4.5a1,1,0,0,0,1,1,3.25,3.25,0,1,0,0-6.5A1,1,0,0,0,39.88,12.08ZM23.13,8.8a1,1,0,0,0,1-1c0-2.5,2.15-3.64,4.16-3.64h7.42c2,0,4.17,1.14,4.17,3.64a1,1,0,0,0,2,0c0-3.27-2.6-5.64-6.17-5.64H28.29c-3.57,0-6.16,2.37-6.16,5.64A1,1,0,0,0,23.13,8.8Zm-.55,20.66H41.42a1.15,1.15,0,0,0,1.07-1.59,5.76,5.76,0,0,0-5.25-3.4H26.76a5.76,5.76,0,0,0-5.25,3.4A1.15,1.15,0,0,0,22.58,29.46Zm2.29-7.17a1,1,0,0,0,0-2h-.4a.5.5,0,0,1-.5-.5,1,1,0,0,0-2,0,2.51,2.51,0,0,0,2.5,2.5Zm28.79-16a.93.93,0,1,0,0,1.85.93.93,0,0,0,0-1.85Zm3.17,0a.93.93,0,1,0,.93.93A.93.93,0,0,0,56.83,6.25ZM64,2.53v8.25a2.53,2.53,0,0,1-2.53,2.53H52.66l-4.12,3a.35.35,0,0,1-.52-.42l1.1-2.57h-.34a2.53,2.53,0,0,1-2.53-2.53V2.53A2.53,2.53,0,0,1,48.78,0H61.47A2.53,2.53,0,0,1,64,2.53ZM60.3,9a12.44,12.44,0,0,0-1.18-5A.53.53,0,0,0,59,3.79,4.62,4.62,0,0,0,56.62,3l0,.07a4.48,4.48,0,0,1,2.07,1s0,0,0,0a8.38,8.38,0,0,0-6.75,0s0,0,0,0a4.42,4.42,0,0,1,2.06-1l0-.07a4.59,4.59,0,0,0-2.38.76.41.41,0,0,0-.12.14,12.48,12.48,0,0,0-1.17,5,3.08,3.08,0,0,0,2.57,1.34.09.09,0,0,0,.07,0l.42-.55a.07.07,0,0,0,0-.11,5.57,5.57,0,0,1-1.61-1.2,7.65,7.65,0,0,0,3.6,1.14A7.59,7.59,0,0,0,58.86,8.4a5.31,5.31,0,0,1-1.61,1.2.07.07,0,0,0,0,.11l.42.55a.11.11,0,0,0,.07,0A3.09,3.09,0,0,0,60.3,9ZM34.68,51.88H29.32a.7.7,0,0,0-.7.7v1.91l-2,2a.71.71,0,0,0,.5,1.22h9.78a.71.71,0,0,0,.5-1.22l-2-2V52.58A.7.7,0,0,0,34.68,51.88ZM1.75,56.16H2.93A1.11,1.11,0,0,0,4,57.25H10.3a1.11,1.11,0,0,0,1.1-1.09h1.18a1.75,1.75,0,0,0,1.75-1.75V29.08a1.75,1.75,0,0,0-1.75-1.75H1.75A1.75,1.75,0,0,0,0,29.08V54.41A1.75,1.75,0,0,0,1.75,56.16Zm61,3.6H1.26A1.25,1.25,0,0,0,0,61v1.72A1.25,1.25,0,0,0,1.26,64H62.74A1.25,1.25,0,0,0,64,62.74V61A1.25,1.25,0,0,0,62.74,59.76Zm-4.91-6.57H54.47A2.48,2.48,0,0,0,52,55.66v2h8.3v-2A2.47,2.47,0,0,0,57.83,53.19Z"/></g></svg>