<?xml version="1.0" encoding="utf-8"?>
<svg viewBox="0 0 500 500" xmlns="http://www.w3.org/2000/svg">
  <g transform="matrix(0.308732, 0, 0, -0.30991, -59.74395, 557.497925)" fill="#6E07F3" stroke="white" style="">
    <path d="M557 1776 c-42 -15 -56 -25 -110 -75 -75 -70 -104 -165 -86 -282 8 -50 7 -78 -1 -103 -21 -63 29 -136 93 -136 21 0 32 -8 45 -32 9 -18 39 -55 65 -84 47 -51 47 -52 38 -94 -5 -24 -15 -46 -22 -50 -6 -5 -42 -11 -78 -15 -101 -10 -162 -30 -209 -71 -68 -58 -85 -101 -90 -225 -4 -109 5 -149 33 -149 12 0 15 -16 15 -77 0 -94 19 -140 70 -165 32 -17 86 -18 683 -18 428 0 655 4 668 10 15 9 19 22 19 63 0 63 -11 77 -62 77 l-38 0 0 80 0 80 89 0 c128 0 121 -17 121 308 0 262 -5 302 -35 302 -11 0 -14 36 -17 186 l-3 186 -28 24 c-28 24 -29 24 -258 24 l-230 0 -24 -25 c-25 -24 -25 -26 -25 -204 l0 -179 -91 -4 c-115 -4 -119 -9 -119 -130 l0 -88 -27 0 c-41 0 -51 10 -62 60 -10 44 -10 44 38 95 27 28 56 66 65 83 13 25 23 32 46 32 19 0 42 11 62 29 28 25 32 35 30 70 -1 23 -3 51 -3 64 -4 67 16 194 33 217 45 62 23 169 -44 210 -31 19 -49 20 -273 20 -175 -1 -250 -5 -278 -14z m536 -61 c31 -32 39 -71 22 -111 -24 -58 -44 -64 -206 -64 l-146 0 1 46 c1 40 -3 50 -32 75 -40 36 -72 39 -72 6 0 -14 9 -26 23 -32 14 -6 23 -21 25 -38 5 -44 -13 -57 -80 -57 -32 0 -74 -6 -93 -14 -41 -18 -75 -69 -75 -113 0 -26 -4 -33 -19 -33 -23 0 -31 26 -31 105 1 105 52 187 145 231 48 23 59 24 281 24 l231 0 26 -25z m-123 -255 l0 -30 -225 0 c-191 0 -225 2 -225 15 0 36 48 44 253 45 l197 0 0 -30z m100 -26 c0 -52 -1 -55 -22 -52 -20 3 -23 10 -26 56 -3 50 -2 52 22 52 25 0 26 -3 26 -56z m210 26 c0 -25 -4 -30 -25 -30 -20 0 -25 5 -25 24 0 13 6 27 13 29 28 12 37 6 37 -23z m100 -1 c0 -26 -3 -30 -22 -27 -17 2 -24 11 -26 31 -3 23 0 27 22 27 22 0 26 -4 26 -31z m308 -1 l3 -28 -125 0 -126 0 0 30 0 31 123 -3 122 -3 3 -27z m-1030 -125 l-3 -48 -70 0 -70 0 -3 33 c-6 57 0 62 78 62 l71 0 -3 -47z m112 -6 c0 -75 19 -90 116 -97 l75 -5 -27 -52 c-14 -29 -46 -71 -71 -93 -56 -49 -108 -65 -162 -50 -52 14 -124 79 -155 143 l-27 52 75 5 c97 6 121 26 121 100 0 48 1 50 28 50 26 0 27 -2 27 -53z m198 6 l-3 -48 -70 0 -70 0 -3 48 -3 47 76 0 76 0 -3 -47z m722 -78 l0 -125 -230 0 -230 0 0 125 0 125 230 0 230 0 0 -125z m-1228 25 c2 -40 0 -50 -12 -50 -24 0 -40 21 -40 50 0 14 5 31 12 38 24 24 36 12 40 -38z m596 38 c27 -27 8 -88 -27 -88 -13 0 -15 10 -13 50 4 50 16 62 40 38z m12 -503 l0 -255 -25 0 -25 0 0 255 0 255 25 0 25 0 0 -255z m670 180 c0 -64 -3 -75 -17 -75 -9 0 -27 -10 -40 -22 l-23 -21 0 41 c0 35 -3 42 -20 42 -18 0 -20 -7 -20 -80 0 -72 2 -80 19 -80 11 0 21 9 25 23 l6 22 18 -21 c9 -12 25 -24 35 -27 15 -6 17 -21 17 -122 l0 -115 -75 0 -75 0 0 49 c0 34 -6 56 -21 75 -20 25 -23 26 -134 26 -111 0 -114 -1 -134 -26 -15 -19 -21 -41 -21 -75 l0 -49 -75 0 -75 0 0 186 c0 171 1 185 18 182 14 -3 18 -16 20 -66 3 -54 6 -62 22 -62 18 0 20 7 20 65 0 63 1 65 25 65 16 0 25 6 25 15 0 12 -14 15 -65 15 l-65 0 0 55 0 55 305 0 305 0 0 -75z m-982 -22 c20 3 43 6 51 8 10 3 17 -9 23 -36 8 -37 7 -42 -19 -63 -70 -58 -68 -58 -123 -16 -47 36 -50 40 -44 74 9 49 11 50 45 38 17 -6 47 -8 67 -5z m980 -139 l-3 -26 -17 30 c-16 27 -16 30 0 53 l17 24 3 -27 c2 -16 2 -40 0 -54z m-1089 -2 l44 -38 -48 -27 c-26 -15 -51 -27 -55 -27 -5 0 -11 19 -15 43 -3 23 -9 50 -11 59 -4 14 2 19 36 27 3 0 25 -16 49 -37z m263 28 c5 0 7 -13 4 -30 -3 -16 -9 -43 -12 -60 -3 -16 -9 -30 -14 -30 -4 0 -29 12 -55 27 l-48 26 44 38 c24 21 50 36 57 34 8 -3 18 -5 24 -5z m-390 -78 c25 -106 63 -177 141 -258 38 -41 73 -74 76 -74 14 0 115 107 148 156 19 29 45 85 58 126 l24 73 1 -132 c0 -128 1 -132 25 -151 20 -16 25 -29 25 -62 0 -37 -2 -40 -15 -26 -28 28 -51 27 -116 -4 -64 -30 -64 -30 -246 -30 l-183 0 0 225 0 225 23 0 c20 0 25 -8 39 -68z m-122 -107 l0 -165 -76 0 -76 0 4 93 c5 115 28 165 95 208 26 16 48 29 50 29 2 0 3 -74 3 -165z m360 75 c13 -8 13 -12 -3 -27 -18 -17 -19 -17 -33 1 -11 16 -11 22 -1 28 15 10 19 10 37 -2z m-83 -102 c-5 -21 -13 -38 -17 -38 -8 0 -50 62 -50 73 0 4 12 13 27 21 38 20 54 -2 40 -56z m178 48 c18 -13 18 -14 -1 -46 -27 -47 -41 -48 -49 -1 -10 59 9 77 50 47z m-92 -88 c14 -50 13 -54 -4 -73 -19 -19 -19 -19 -38 0 -17 19 -18 23 -4 73 9 28 19 52 23 52 4 0 14 -24 23 -52z m617 12 c0 -46 21 -95 45 -104 9 -3 39 -6 66 -6 l50 0 -3 -77 -3 -78 -100 0 -100 0 -3 140 c-1 76 0 145 2 152 3 7 15 13 26 13 17 0 20 -6 20 -40z m158 -13 l3 -48 -48 3 -48 3 -3 48 -3 48 48 -3 48 -3 3 -48z m-358 -227 l0 -130 -27 0 c-27 0 -28 1 -25 48 3 40 -1 54 -22 79 -21 24 -26 42 -26 82 l0 51 50 0 50 0 0 -130z m100 50 c0 -79 0 -80 -25 -80 -25 0 -25 1 -25 80 0 79 0 80 25 80 25 0 25 -1 25 -80z m-880 0 c0 -26 -4 -30 -26 -30 -21 0 -25 -4 -22 -22 l3 -23 242 -3 c242 -2 243 -2 293 23 61 31 78 31 82 3 3 -20 10 -23 51 -26 l48 -3 -3 -47 -3 -47 -352 -3 -352 -2 -28 24 c-25 22 -28 31 -31 105 l-4 81 51 0 c50 0 51 -1 51 -30z m1240 -155 l0 -25 -205 0 -205 0 0 25 0 25 205 0 205 0 0 -25z"/>
    <path d="M782 1149 c-15 -23 -59 -25 -83 -3 -14 13 -21 13 -40 3 l-23 -12 32 -28 c44 -40 99 -40 143 -1 l31 28 -24 16 c-23 15 -25 15 -36 -3z"/>
    <path d="M1302 1317 l-32 -33 35 -34 c33 -32 36 -33 52 -18 13 14 14 20 3 33 -11 13 -10 18 4 34 15 16 15 19 -2 34 -24 22 -23 22 -60 -16z"/>
    <path d="M1440 1305 l0 -25 100 0 100 0 0 25 0 25 -100 0 -100 0 0 -25z"/>
    <path d="M1440 1205 l0 -25 100 0 100 0 0 25 0 25 -100 0 -100 0 0 -25z"/>
    <path d="M1250 865 c0 -63 12 -74 75 -70 34 2 40 6 39 24 -3 91 -5 101 -19 101 -10 0 -15 -10 -15 -29 0 -39 -9 -61 -26 -61 -10 0 -14 13 -14 45 0 38 -3 45 -20 45 -18 0 -20 -7 -20 -55z"/>
    <path d="M1390 859 c0 -52 2 -59 20 -59 16 0 20 7 20 35 0 24 6 37 20 45 34 18 24 38 -20 38 l-40 1 0 -60z"/>
    <path d="M1504 912 c-39 -25 -33 -90 9 -110 42 -20 81 2 85 49 2 24 -3 42 -13 53 -17 17 -62 21 -81 8z m54 -55 c3 -22 -1 -27 -17 -27 -15 0 -21 6 -21 23 0 46 33 49 38 4z"/>
  </g>
</svg>