<?xml version="1.0" encoding="UTF-8"?>
<svg xmlns="http://www.w3.org/2000/svg" xmlns:xlink="http://www.w3.org/1999/xlink" width="32px" height="32px" viewBox="0 0 32 32" version="1.1">
<g id="surface1">
<path style=" stroke:none;fill-rule:evenodd;fill:#6E07F3;fill-opacity:1;" d="M 15.800781 10.648438 C 16.386719 10.421875 16.625 9.847656 17.019531 9.429688 C 17.367188 9.152344 17.691406 8.851562 18.050781 8.585938 C 18.285156 8.199219 18.71875 8.007812 18.890625 7.558594 C 19.304688 7.347656 19.433594 6.851562 19.921875 6.714844 C 20.203125 6.371094 20.398438 5.941406 20.859375 5.777344 C 20.953125 5.3125 21.246094 5.039062 21.421875 4.65625 C 21.847656 4.457031 22.0625 4.050781 22.640625 4 C 23.34375 4.042969 23.457031 4.679688 23.949219 4.933594 C 23.933594 4.636719 23.734375 4.523438 23.761719 4.1875 C 24.386719 3.148438 25.253906 2.28125 26.289062 1.65625 L 27.414062 1.65625 C 27.851562 1.929688 28.257812 2.242188 28.632812 2.59375 C 29.355469 3.929688 30.28125 5.0625 30.785156 6.621094 C 30.734375 6.882812 30.648438 7.109375 30.597656 7.371094 C 30.332031 7.792969 29.84375 7.988281 29.472656 8.308594 C 29.148438 8.675781 28.769531 8.988281 28.351562 9.242188 C 28.4375 9.5625 28.613281 9.792969 28.539062 10.273438 C 28.25 10.675781 27.863281 11 27.414062 11.210938 C 26.996094 11.632812 26.679688 12.160156 26.195312 12.519531 C 26.03125 12.648438 25.800781 12.648438 25.636719 12.519531 C 24.980469 12.988281 24.617188 13.753906 23.949219 14.207031 C 23.5625 14.914062 22.941406 15.386719 22.546875 16.078125 C 22.214844 16.277344 22.054688 16.648438 21.609375 16.734375 C 21.8125 17.15625 22.378906 17.210938 22.546875 17.671875 C 22.828125 17.609375 22.871094 17.3125 23.296875 17.390625 C 25.144531 17.289062 26.585938 17.59375 28.257812 17.671875 C 29.015625 18.214844 29.707031 18.84375 30.320312 19.542969 C 30.613281 19.5 30.566406 19.796875 30.789062 19.824219 C 31.082031 19.78125 31.152344 19.960938 31.347656 20.011719 C 31.449219 20.394531 31.574219 20.769531 31.722656 21.136719 C 31.734375 22.972656 32.253906 25.351562 31.628906 26.941406 C 31.003906 27.488281 29.984375 27.5625 29.101562 27.410156 C 28.425781 26.496094 28.589844 24.738281 27.882812 23.851562 C 27.242188 23.601562 26.804688 23.664062 26.105469 23.570312 C 25.382812 23.847656 24.964844 24.515625 24.417969 25.070312 C 23.902344 25.34375 23.429688 25.691406 23.011719 26.101562 C 23.101562 26.625 23.132812 27.160156 23.105469 27.691406 C 23.28125 28.003906 23.59375 28.210938 23.949219 28.253906 C 24.078125 28.59375 24.542969 28.601562 24.699219 28.910156 C 25.285156 29.195312 25.796875 29.613281 26.195312 30.128906 C 26.222656 30.507812 26.355469 30.78125 26.382812 31.160156 C 26.222656 31.34375 26.097656 31.558594 25.820312 31.625 C 25.585938 31.734375 25.507812 32 25.164062 32 C 23.789062 31.910156 22.902344 31.328125 21.605469 31.160156 C 21.296875 31.125 21.203125 30.878906 21.046875 30.691406 C 20.988281 30.4375 20.652344 30.457031 20.671875 30.128906 C 19.675781 29.40625 18.894531 28.472656 18.050781 27.597656 C 18.007812 26.890625 17.746094 26.402344 17.675781 25.726562 C 17.6875 24.945312 17.65625 24.164062 17.578125 23.386719 C 17.527344 22.972656 17.277344 22.753906 17.300781 22.261719 C 16.679688 21.257812 15.863281 20.449219 15.144531 19.546875 C 14.941406 19.53125 15.101562 19.878906 15.050781 20.015625 C 14.921875 20.0625 14.816406 20.164062 14.769531 20.296875 C 12.839844 21.765625 11.164062 23.492188 9.339844 25.070312 C 9.40625 25.691406 9.171875 26.609375 9.527344 26.945312 C 10.046875 26.964844 9.96875 26.386719 10.371094 26.289062 C 10.5625 25.988281 10.785156 25.707031 11.023438 25.445312 C 11.5625 24.984375 12.0625 24.484375 12.523438 23.949219 C 12.933594 23.855469 13.039062 23.464844 13.367188 23.292969 C 13.648438 23.074219 13.949219 22.875 14.210938 22.636719 C 14.816406 22.277344 15.054688 21.546875 15.988281 21.511719 C 16.097656 21.625 16.222656 21.71875 16.363281 21.792969 C 16.457031 22.855469 15.640625 23.007812 15.144531 23.480469 C 14.707031 24.007812 14.015625 24.285156 13.554688 24.789062 C 12.414062 25.589844 11.617188 26.726562 10.558594 27.597656 C 10.574219 27.90625 10.472656 28.207031 10.277344 28.441406 C 9.96875 28.519531 9.65625 28.582031 9.339844 28.628906 C 7.265625 29.660156 5.101562 30.503906 2.878906 31.15625 C 2.410156 31.316406 2.324219 31.851562 1.566406 31.71875 C 1.566406 31.628906 1.453125 31.648438 1.378906 31.625 C 0.78125 30.742188 1.589844 30.1875 1.941406 29.566406 C 2.375 27 3.625 25.253906 3.90625 22.542969 C 4.886719 21.117188 6.109375 19.9375 7.28125 18.703125 C 7.636719 18.628906 7.789062 18.253906 8.03125 18.046875 C 8.105469 17.984375 8.222656 18.019531 8.308594 17.953125 C 8.628906 17.714844 9.066406 17.09375 9.433594 16.738281 C 9.636719 16.496094 9.894531 16.304688 10.183594 16.175781 C 10.296875 15.75 11.089844 15.691406 11.398438 15.988281 C 11.375 16.140625 11.488281 16.148438 11.492188 16.269531 C 11.539062 16.875 11.125 17.023438 10.742188 17.203125 C 10.554688 17.542969 10.1875 17.710938 9.996094 18.046875 C 9.433594 18.582031 8.839844 19.082031 8.214844 19.546875 C 7.074219 20.558594 5.917969 21.554688 5.03125 22.824219 C 5.601562 23.035156 6.363281 23.050781 7 23.199219 C 7.304688 23.472656 7.285156 23.832031 7.1875 24.320312 C 7.792969 24.378906 8.109375 24.144531 8.589844 24.320312 C 8.984375 24.28125 9.039062 23.898438 9.246094 23.667969 C 9.5 23.488281 9.722656 23.265625 9.902344 23.011719 C 10.375 22.609375 10.8125 22.171875 11.304688 21.792969 C 12.199219 20.929688 13.136719 20.117188 14.117188 19.359375 C 14.347656 19.222656 14.636719 19.222656 14.867188 19.359375 C 14.832031 19.046875 14.585938 18.953125 14.398438 18.796875 C 14.316406 18.558594 14.148438 18.359375 13.929688 18.234375 C 13.507812 18.8125 12.824219 19.128906 12.335938 19.640625 C 11.828125 20.101562 11.320312 20.558594 10.839844 21.042969 C 10.5 21.171875 10.203125 21.402344 9.996094 21.699219 C 9.433594 22.136719 8.871094 22.574219 8.308594 23.011719 C 7.957031 23.042969 7.769531 23.597656 7.375 23.292969 C 7.050781 22.570312 7.894531 22.269531 8.214844 21.886719 C 8.34375 21.613281 8.648438 21.507812 8.777344 21.230469 C 9.183594 21.230469 9.125 20.765625 9.527344 20.761719 C 10.285156 19.898438 11.25 19.238281 11.964844 18.328125 C 12.476562 18.125 12.683594 17.613281 13.273438 17.484375 C 12.316406 16.355469 11.285156 15.289062 10.183594 14.300781 C 8.992188 14.269531 7.804688 14.332031 6.625 14.488281 C 5.863281 14.46875 5.242188 14.308594 4.46875 14.300781 C 3.167969 13.289062 2.058594 12.054688 1.191406 10.648438 C 1.015625 10.453125 0.722656 10.371094 0.535156 10.179688 C 0.183594 8.609375 -0.277344 6.199219 0.441406 4.65625 C 0.898438 4.785156 1.539062 4.507812 2.035156 4.75 C 2.21875 5.003906 2.089844 5.570312 2.128906 5.96875 C 2.335938 6.519531 2.691406 7.007812 3.15625 7.371094 C 3.445312 7.882812 3.867188 8.304688 4.375 8.589844 C 4.980469 8.613281 5.585938 8.515625 6.15625 8.308594 C 7.257812 7.695312 7.910156 6.632812 8.777344 5.78125 C 8.457031 4.882812 8.171875 3.949219 7.652344 3.253906 C 7.117188 2.292969 5.742188 2.167969 5.03125 1.378906 C 5.046875 1.082031 5.246094 0.96875 5.21875 0.628906 C 5.585938 0.308594 6.046875 0.113281 6.53125 0.0664062 C 6.691406 0.0898438 6.773438 -0.0898438 6.8125 0.0664062 C 7.367188 0.171875 7.9375 0.171875 8.496094 0.0664062 C 8.871094 0.378906 9.511719 0.425781 9.992188 0.628906 C 10.527344 0.753906 10.886719 1.046875 11.398438 1.191406 C 11.386719 1.765625 11.828125 1.886719 11.960938 2.316406 C 12.265625 2.578125 12.519531 2.894531 12.710938 3.253906 C 13.273438 3.78125 13.675781 4.472656 14.207031 5.03125 C 14.296875 6.320312 14.804688 7.675781 14.488281 9.058594 C 14.5625 9.484375 14.992188 9.550781 15.144531 9.898438 C 15.40625 10.109375 15.628906 10.363281 15.800781 10.648438 Z M 8.21875 1.847656 C 8.191406 1.820312 8.074219 1.890625 8.125 1.9375 C 8.148438 1.964844 8.265625 1.894531 8.214844 1.847656 Z M 2.878906 9.054688 C 2.460938 8.453125 1.992188 7.890625 1.476562 7.371094 C 1.660156 8.136719 1.753906 8.921875 1.753906 9.710938 C 1.863281 9.726562 1.835938 9.882812 1.847656 9.992188 C 2.101562 10.027344 2.261719 10.632812 2.503906 10.367188 C 2.21875 10.039062 2.605469 9.601562 2.503906 9.148438 C 2.613281 9.070312 2.746094 9.039062 2.878906 9.054688 C 3.082031 10.292969 3.355469 11.453125 4.097656 12.148438 C 4.167969 11.578125 3.824219 11.019531 4.378906 10.835938 C 4.691406 11.179688 4.753906 11.773438 5.035156 12.148438 C 5.058594 12.433594 5.238281 12.570312 5.316406 12.804688 C 5.457031 12.972656 5.46875 13.273438 5.875 13.179688 C 6.019531 12.941406 5.761719 12.464844 5.78125 12.054688 C 5.9375 11.835938 5.734375 11.253906 6.15625 11.304688 C 6.617188 11.625 6.550781 12.472656 6.8125 12.992188 L 7.75 12.992188 C 7.851562 12.34375 7.449219 11.191406 8.21875 11.210938 C 8.539062 11.609375 8.632812 12.234375 8.777344 12.804688 C 9.046875 12.941406 9.464844 12.933594 9.621094 13.179688 L 10.277344 13.179688 C 10.453125 13.089844 10.589844 13.460938 10.652344 13.179688 C 10.445312 13.082031 10.167969 12.464844 10.558594 12.335938 C 11.089844 12.242188 11.097656 12.671875 11.308594 12.898438 C 11.457031 13.183594 11.332031 13.75 11.773438 13.742188 C 11.679688 13.296875 11.414062 12.054688 12.242188 12.242188 C 12.410156 12.328125 12.414062 12.570312 12.523438 12.710938 L 12.523438 13.273438 C 12.605469 13.496094 12.695312 13.824219 12.804688 14.117188 C 12.820312 14.148438 12.78125 14.285156 12.804688 14.304688 C 12.933594 14.410156 12.894531 15.128906 13.367188 15.148438 C 13.382812 14.601562 13.203125 14.25 13.273438 13.648438 C 13.46875 13.5 13.214844 12.90625 13.648438 12.992188 C 13.914062 13.351562 13.855469 14.035156 14.117188 14.398438 C 14.175781 14.863281 14.335938 15.308594 14.582031 15.707031 C 14.660156 15.066406 14.460938 14.152344 15.050781 14.023438 C 15.472656 14.226562 15.363281 14.960938 15.425781 15.523438 C 15.757812 16.4375 15.746094 17.699219 16.363281 18.332031 C 16.371094 17.871094 16.285156 17.316406 16.738281 17.300781 C 17.082031 17.488281 17.070312 18.03125 17.207031 18.425781 C 17.355469 18.816406 17.449219 19.226562 17.488281 19.644531 C 17.738281 19.859375 17.8125 20.253906 18.140625 20.390625 L 18.140625 18.894531 C 18.324219 18.640625 18.148438 18.027344 18.609375 18.050781 C 18.914062 18.121094 18.832031 18.578125 18.984375 18.800781 C 19.015625 20.113281 19.386719 21.082031 19.453125 22.359375 C 19.46875 22.65625 19.203125 22.671875 19.265625 23.015625 C 19.199219 23.300781 19.429688 23.289062 19.359375 23.578125 L 19.359375 24.324219 C 19.554688 25.414062 19.769531 26.472656 19.921875 27.601562 C 20.183594 27.746094 20.066406 28.273438 20.390625 28.351562 C 20.429688 28.050781 20.265625 27.542969 20.578125 27.507812 C 20.8125 27.914062 20.972656 28.359375 21.046875 28.820312 C 21.304688 29.125 21.21875 29.769531 21.699219 29.851562 C 21.667969 29.433594 21.503906 29.078125 21.886719 28.914062 C 22.390625 29.378906 22.175781 30.566406 23.011719 30.695312 C 23.136719 30.523438 22.8125 29.710938 23.292969 29.664062 C 23.59375 29.847656 23.800781 30.15625 23.855469 30.507812 L 24.792969 30.507812 C 24.757812 30.257812 24.546875 30.191406 24.324219 30.132812 C 24.292969 29.910156 24.03125 29.921875 23.949219 29.757812 C 23.566406 29.609375 23.375 29.269531 23.011719 29.101562 C 22.59375 28.457031 22.097656 27.894531 21.796875 27.136719 C 21.863281 26.847656 21.699219 26.792969 21.699219 26.574219 C 21.785156 26.332031 21.816406 26.078125 21.796875 25.824219 C 21.863281 25.539062 21.632812 25.546875 21.699219 25.261719 L 21.699219 24.324219 C 21.703125 24.015625 21.664062 23.664062 21.980469 23.671875 C 22.257812 23.800781 22.269531 24.195312 22.261719 24.605469 C 22.898438 24.648438 22.234375 23.390625 22.730469 23.296875 C 23.125 23.371094 22.964844 23.996094 23.199219 24.230469 C 23.402344 24.058594 23.625 23.902344 23.855469 23.765625 C 23.890625 23.300781 23.714844 22.625 24.136719 22.546875 C 24.195312 22.640625 24.351562 22.644531 24.324219 22.828125 C 24.304688 22.957031 24.386719 23.074219 24.507812 23.109375 C 24.710938 22.730469 25 22.410156 25.351562 22.171875 C 26.339844 21.972656 27.183594 22.371094 28.066406 22.546875 C 28.160156 22.683594 28.195312 22.851562 28.160156 23.015625 C 28.457031 23.007812 28.738281 23.148438 28.910156 23.390625 C 28.941406 23.511719 29.074219 23.535156 29.097656 23.671875 C 29.246094 24.644531 29.769531 25.246094 30.035156 26.105469 C 30.375 26.105469 30.453125 25.839844 30.691406 25.730469 C 30.632812 24.988281 30.71875 24.238281 30.691406 23.296875 C 30.5625 22.617188 30.5 21.925781 30.503906 21.234375 C 30.367188 21.082031 30.300781 20.878906 30.316406 20.671875 C 29.925781 20.753906 29.875 20.492188 29.566406 20.488281 C 29.339844 20.117188 28.949219 19.917969 28.726562 19.550781 C 28.332031 19.351562 28.132812 18.953125 27.695312 18.800781 C 26.902344 18.875 26.105469 18.777344 25.351562 18.519531 C 24.191406 18.515625 23.324219 18.804688 22.167969 18.800781 C 21.699219 18.5 21.285156 18.121094 20.953125 17.675781 C 20.484375 17.363281 20.164062 16.90625 19.734375 16.550781 C 18.914062 15.8125 18.117188 15.046875 17.300781 14.304688 C 16.960938 13.863281 16.511719 13.53125 16.269531 12.992188 C 15.96875 12.511719 15.578125 12.125 15.332031 11.589844 C 15.0625 11.453125 14.972656 11.140625 14.769531 10.933594 C 14.640625 10.6875 14.34375 10.613281 14.300781 10.277344 C 13.851562 9.9375 13.5 9.484375 13.273438 8.96875 C 13.203125 7.789062 13.097656 6.644531 13.085938 5.410156 C 12.527344 5.277344 12.296875 4.824219 11.960938 4.472656 C 11.496094 3.691406 10.878906 3.058594 10.554688 2.132812 C 10.390625 2.082031 10.167969 2.082031 10.089844 1.945312 C 9.660156 1.890625 9.691406 2.296875 9.246094 2.226562 C 9.078125 2.171875 8.855469 2.175781 8.777344 2.039062 C 8.542969 2.160156 8.390625 1.761719 8.308594 2.039062 C 8.851562 2.527344 9.71875 2.691406 9.808594 3.628906 C 9.890625 4.089844 9.414062 3.988281 9.429688 4.378906 C 9.71875 4.765625 9.910156 5.214844 9.992188 5.691406 C 10.082031 6.121094 9.757812 6.140625 9.808594 6.53125 C 9.882812 6.902344 10.0625 7.570312 9.523438 7.5625 C 9.402344 7.46875 9.175781 7.476562 9.152344 7.28125 C 9 7.214844 9.171875 6.824219 8.871094 6.90625 C 8.277344 7.386719 9.5625 8.730469 8.496094 8.875 C 8.144531 8.726562 8.097656 8.269531 8.121094 7.75 C 7.863281 7.683594 7.933594 7.9375 7.746094 7.9375 C 7.796875 8.074219 7.382812 8.167969 7.652344 8.21875 C 7.632812 8.566406 7.664062 8.910156 7.746094 9.25 C 7.707031 9.550781 7.867188 10.058594 7.558594 10.09375 C 7.328125 10.167969 7.078125 10.042969 6.996094 9.8125 C 6.785156 9.742188 7.082031 9.164062 6.714844 9.25 C 6.625 9.921875 7.25 10.710938 6.53125 10.933594 C 6.105469 10.953125 6.078125 10.570312 5.875 10.371094 C 5.855469 10.636719 5.710938 10.773438 5.40625 10.746094 C 5.269531 10.664062 5.109375 10.605469 5.125 10.371094 C 4.898438 10.335938 4.921875 10.542969 4.65625 10.464844 C 4.574219 10.300781 4.394531 10.230469 4.46875 9.902344 C 3.71875 9.839844 3.363281 9.382812 2.878906 9.054688 Z M 26.007812 8.402344 C 25.625 8.191406 25.363281 7.859375 24.980469 7.652344 C 24.328125 6.710938 23.324219 6.125 22.640625 5.214844 L 22.359375 5.214844 C 21.976562 5.6875 21.6875 6.230469 21.515625 6.808594 C 22.996094 8.199219 24.554688 9.515625 25.914062 11.023438 C 26.480469 10.808594 26.675781 10.222656 27.226562 9.992188 C 26.960938 9.320312 26.382812 8.964844 26.007812 8.402344 Z M 27.695312 5.5 C 27.351562 5.589844 27.230469 5.90625 26.945312 6.058594 C 26.835938 6.074219 26.679688 6.042969 26.664062 6.152344 C 26.984375 6.269531 27.101562 6.589844 27.039062 7.089844 C 26.898438 7.199219 26.65625 7.207031 26.570312 7.371094 C 26.941406 7.59375 27.140625 7.988281 27.507812 8.214844 C 28.070312 7.679688 28.664062 7.179688 29.289062 6.714844 C 29.097656 6.1875 28.847656 5.683594 28.539062 5.21875 C 28.324219 5.277344 27.972656 5.402344 27.789062 5.21875 C 27.785156 5.335938 27.667969 5.347656 27.695312 5.5 Z M 20.765625 7.558594 C 20.636719 7.605469 20.535156 7.710938 20.484375 7.839844 C 20.089844 7.882812 20.054688 8.28125 19.734375 8.402344 C 19.082031 9.152344 18.359375 9.839844 17.582031 10.460938 C 17.21875 10.683594 16.875 10.9375 16.550781 11.210938 C 16.789062 11.847656 17.316406 12.195312 17.769531 12.613281 C 18.003906 12.128906 18.359375 11.707031 18.800781 11.398438 C 19.136719 10.957031 19.625 10.660156 20.015625 10.273438 C 20.070312 9.976562 20.566406 9.636719 20.578125 9.429688 C 20.59375 9.144531 21.144531 8.949219 21.421875 8.964844 C 21.558594 9.039062 21.6875 9.132812 21.796875 9.242188 C 21.960938 9.9375 21.402344 9.914062 21.328125 10.367188 C 21.042969 10.648438 20.789062 10.960938 20.578125 11.304688 C 19.761719 11.921875 18.996094 12.59375 18.238281 13.269531 C 18.671875 13.492188 18.726562 14.09375 19.269531 14.207031 C 19.339844 13.78125 19.773438 13.714844 19.921875 13.363281 C 20.371094 13.066406 20.667969 12.605469 21.046875 12.238281 C 21.410156 11.890625 21.796875 11.417969 22.546875 11.492188 C 22.585938 11.671875 22.746094 11.726562 22.734375 11.960938 C 22.550781 12.429688 22.011719 12.550781 21.796875 12.988281 C 21.425781 13.273438 21.109375 13.625 20.859375 14.019531 C 20.429688 14.183594 20.285156 14.632812 19.828125 14.769531 C 19.871094 15.164062 20.273438 15.199219 20.390625 15.519531 C 20.703125 15.640625 20.71875 16.066406 21.046875 16.171875 C 21.472656 15.226562 22.234375 14.613281 22.734375 13.738281 C 23.097656 13.410156 23.414062 13.03125 23.667969 12.613281 C 23.855469 12.460938 24.105469 12.363281 24.136719 12.054688 C 24.324219 11.898438 24.574219 11.800781 24.605469 11.492188 C 23.226562 10.277344 22.054688 8.859375 20.765625 7.558594 Z M 14.679688 16.453125 C 14.738281 16.589844 14.792969 16.445312 14.679688 16.453125 C 14.625 16.289062 14.792969 15.90625 14.582031 15.894531 C 14.542969 16.101562 14.371094 16.402344 14.679688 16.453125 Z M 3.535156 27.503906 C 3.886719 27.5625 4.019531 27.832031 4.285156 27.972656 C 4.316406 28.285156 4.5625 28.378906 4.753906 28.535156 C 4.941406 28.71875 4.949219 29.089844 5.3125 29.097656 C 5.738281 28.835938 6.355469 28.769531 6.71875 28.441406 C 7.230469 28.289062 7.710938 28.03125 8.125 27.691406 C 7.648438 26.996094 8.003906 26.488281 7.9375 25.445312 C 7.234375 25.398438 6.25 25.632812 6.0625 25.070312 C 5.964844 24.734375 5.933594 24.386719 5.96875 24.039062 C 5.289062 24.09375 5.035156 23.726562 4.5625 23.574219 C 4.292969 24.957031 3.855469 26.171875 3.535156 27.503906 Z M 3.535156 27.503906 "/>
</g>
</svg>
